<svg width="1920" height="178" viewBox="0 0 1920 178" fill="none" xmlns="http://www.w3.org/2000/svg">
<path d="M0 118.98L29.2267 130.327C58.24 141.785 116.693 164.479 174.933 171.529C233.173 178.47 291.627 169.657 349.44 169.657C407.467 169.657 465.067 178.47 523.093 177.699C580.907 177.038 639.36 166.682 697.6 162.165C755.84 157.538 814.293 158.64 872.533 163.047C930.773 167.453 989.227 175.165 1047.47 175.165C1105.71 175.165 1164.16 167.453 1222.4 162.165C1280.64 156.767 1339.09 153.903 1396.91 157.318C1454.93 160.843 1512.53 170.758 1570.56 170.428C1628.37 169.987 1686.83 159.411 1745.07 146.742C1803.31 134.073 1861.76 119.311 1890.77 112.039L1920 104.658V0H1890.77C1861.76 0 1803.31 0 1745.07 0C1686.83 0 1628.37 0 1570.56 0C1512.53 0 1454.93 0 1396.91 0C1339.09 0 1280.64 0 1222.4 0C1164.16 0 1105.71 0 1047.47 0C989.227 0 930.773 0 872.533 0C814.293 0 755.84 0 697.6 0C639.36 0 580.907 0 523.093 0C465.067 0 407.467 0 349.44 0C291.627 0 233.173 0 174.933 0C116.693 0 58.24 0 29.2267 0H0V118.98Z" fill="#BDA3FF"/>
<path d="M0 107.963L29.2267 108.845C58.24 109.836 116.693 111.599 174.933 116.226C233.173 120.853 291.627 128.124 349.44 129.666C407.467 131.098 465.067 126.692 523.093 116.997C580.907 107.192 639.36 92.2095 697.6 90.557C755.84 88.9045 814.293 100.582 872.533 102.455C930.773 104.328 989.227 96.1755 1047.47 102.125C1105.71 107.963 1164.16 127.793 1222.4 128.344C1280.64 128.895 1339.09 110.167 1396.91 105.54C1454.93 101.023 1512.53 110.497 1570.56 108.735C1628.37 106.862 1686.83 93.6417 1745.07 88.6842C1803.31 83.7267 1861.76 87.0317 1890.77 88.6842L1920 90.3367V0H1890.77C1861.76 0 1803.31 0 1745.07 0C1686.83 0 1628.37 0 1570.56 0C1512.53 0 1454.93 0 1396.91 0C1339.09 0 1280.64 0 1222.4 0C1164.16 0 1105.71 0 1047.47 0C989.227 0 930.773 0 872.533 0C814.293 0 755.84 0 697.6 0C639.36 0 580.907 0 523.093 0C465.067 0 407.467 0 349.44 0C291.627 0 233.173 0 174.933 0C116.693 0 58.24 0 29.2267 0H0V107.963Z" fill="#8170AE"/>
<path d="M0 94.7433L29.2267 86.7012C58.24 78.5488 116.693 62.4645 174.933 58.9392C233.173 55.4138 291.627 64.6678 349.44 63.0153C407.467 61.3628 465.067 48.8038 523.093 44.8378C580.907 40.7617 639.36 45.1683 697.6 49.0242C755.84 52.88 814.293 56.185 872.533 55.6342C930.773 55.0833 989.227 50.6767 1047.47 54.202C1105.71 57.6172 1164.16 69.0745 1222.4 72.4897C1280.64 76.015 1339.09 71.6083 1396.91 68.6338C1454.93 65.7695 1512.53 64.2272 1570.56 59.8205C1628.37 55.4138 1686.83 48.1428 1745.07 49.575C1803.31 51.0072 1861.76 61.3628 1890.77 66.4305L1920 71.6083V0H1890.77C1861.76 0 1803.31 0 1745.07 0C1686.83 0 1628.37 0 1570.56 0C1512.53 0 1454.93 0 1396.91 0C1339.09 0 1280.64 0 1222.4 0C1164.16 0 1105.71 0 1047.47 0C989.227 0 930.773 0 872.533 0C814.293 0 755.84 0 697.6 0C639.36 0 580.907 0 523.093 0C465.067 0 407.467 0 349.44 0C291.627 0 233.173 0 174.933 0C116.693 0 58.24 0 29.2267 0H0V94.7433Z" fill="#4A4063"/>
</svg>
