<svg width="1920" height="170" viewBox="0 0 1920 170" fill="none" xmlns="http://www.w3.org/2000/svg">
<path d="M0 55.625L29.2267 48C58.24 40.375 116.693 25.125 174.933 15.5175C233.173 5.75751 291.627 1.79251 349.44 0.267505C407.467 -1.2575 465.067 -0.342513 523.093 12.1625C580.907 24.6675 639.36 48.4575 697.6 43.73C755.84 38.85 814.293 5.30001 872.533 2.55501C930.773 -0.342495 989.227 27.7175 1047.47 43.425C1105.71 59.1325 1164.16 62.7925 1222.4 57.9125C1280.64 53.0325 1339.09 39.9175 1396.91 37.02C1454.93 34.275 1512.53 41.9 1570.56 37.63C1628.37 33.2075 1686.83 17.0425 1745.07 11.4C1803.31 5.75749 1861.76 10.9425 1890.77 13.3825L1920 15.975V171.525H1890.77C1861.76 171.525 1803.31 171.525 1745.07 171.525C1686.83 171.525 1628.37 171.525 1570.56 171.525C1512.53 171.525 1454.93 171.525 1396.91 171.525C1339.09 171.525 1280.64 171.525 1222.4 171.525C1164.16 171.525 1105.71 171.525 1047.47 171.525C989.227 171.525 930.773 171.525 872.533 171.525C814.293 171.525 755.84 171.525 697.6 171.525C639.36 171.525 580.907 171.525 523.093 171.525C465.067 171.525 407.467 171.525 349.44 171.525C291.627 171.525 233.173 171.525 174.933 171.525C116.693 171.525 58.24 171.525 29.2267 171.525H0V55.625Z" fill="#BDA3FF"/>
<path d="M0 14.45L29.2267 18.2625C58.24 22.075 116.693 29.7 174.933 37.325C233.173 44.95 291.627 52.575 349.44 51.05C407.467 49.525 465.067 38.85 523.093 44.645C580.907 50.5925 639.36 72.8575 697.6 74.6875C755.84 76.5175 814.293 57.6075 872.533 54.1C930.773 50.5925 989.227 62.1825 1047.47 69.655C1105.71 76.975 1164.16 80.025 1222.4 81.55C1280.64 83.075 1339.09 83.075 1396.91 73.925C1454.93 64.775 1512.53 46.475 1570.56 48.7625C1628.37 51.05 1686.83 73.925 1745.07 83.8375C1803.31 93.75 1861.76 90.7 1890.77 89.175L1920 87.65V171.525H1890.77C1861.76 171.525 1803.31 171.525 1745.07 171.525C1686.83 171.525 1628.37 171.525 1570.56 171.525C1512.53 171.525 1454.93 171.525 1396.91 171.525C1339.09 171.525 1280.64 171.525 1222.4 171.525C1164.16 171.525 1105.71 171.525 1047.47 171.525C989.227 171.525 930.773 171.525 872.533 171.525C814.293 171.525 755.84 171.525 697.6 171.525C639.36 171.525 580.907 171.525 523.093 171.525C465.067 171.525 407.467 171.525 349.44 171.525C291.627 171.525 233.173 171.525 174.933 171.525C116.693 171.525 58.24 171.525 29.2267 171.525H0V14.45Z" fill="#8170AE"/>
<path d="M0 104.425L29.2267 108.238C58.24 112.05 116.693 119.675 174.933 116.32C233.173 113.117 291.627 98.7825 349.44 98.325C407.467 97.8675 465.067 110.983 523.093 112.355C580.907 113.575 639.36 102.9 697.6 97.2575C755.84 91.7675 814.293 91.1575 872.533 94.8175C930.773 98.325 989.227 105.95 1047.47 105.645C1105.71 105.492 1164.16 97.2575 1222.4 89.9375C1280.64 82.6175 1339.09 75.9075 1396.91 78.5C1454.93 81.0925 1512.53 92.6825 1570.56 97.2575C1628.37 101.832 1686.83 99.3925 1745.07 99.545C1803.31 99.85 1861.76 102.9 1890.77 104.425L1920 105.95V171.525H1890.77C1861.76 171.525 1803.31 171.525 1745.07 171.525C1686.83 171.525 1628.37 171.525 1570.56 171.525C1512.53 171.525 1454.93 171.525 1396.91 171.525C1339.09 171.525 1280.64 171.525 1222.4 171.525C1164.16 171.525 1105.71 171.525 1047.47 171.525C989.227 171.525 930.773 171.525 872.533 171.525C814.293 171.525 755.84 171.525 697.6 171.525C639.36 171.525 580.907 171.525 523.093 171.525C465.067 171.525 407.467 171.525 349.44 171.525C291.627 171.525 233.173 171.525 174.933 171.525C116.693 171.525 58.24 171.525 29.2267 171.525H0V104.425Z" fill="#4A4063"/>
</svg>
